<svg viewBox="0 0 120 120" fill="none" xmlns="http://www.w3.org/2000/svg">
		<rect width="120" height="120" fill="white" />
		<path
			d="M60 61.75C61.4415 61.75 62.934 62.0324 64.1728 62.4551C64.7945 62.6672 65.3845 62.9259 65.8896 63.2236C66.3695 63.5065 66.8869 63.8905 67.2373 64.4014C67.7058 65.0846 67.5317 66.0188 66.8486 66.4873C66.1654 66.9558 65.2312 66.7817 64.7627 66.0986C64.7545 66.0903 64.6561 65.9785 64.3662 65.8076C64.0761 65.6367 63.6813 65.4578 63.2041 65.2949C62.2445 64.9676 61.0792 64.75 60 64.75C58.9208 64.75 57.7554 64.9676 56.7959 65.2949C56.3186 65.4578 55.9239 65.6367 55.6338 65.8076C55.3438 65.9785 55.2454 66.0904 55.2373 66.0986C54.7688 66.7817 53.8345 66.9558 53.1514 66.4873C52.4682 66.0188 52.2942 65.0845 52.7627 64.4014C53.113 63.8905 53.6305 63.5065 54.1103 63.2236C54.6155 62.9259 55.2055 62.6672 55.8271 62.4551C57.066 62.0324 58.5585 61.75 60 61.75Z"
			fill="#1D6283"
		/>
		<path
			d="M60 55.75C61.4415 55.75 62.934 56.0324 64.1728 56.4551C64.7945 56.6672 65.3845 56.9259 65.8896 57.2236C66.3695 57.5065 66.8869 57.8905 67.2373 58.4014C67.7058 59.0846 67.5317 60.0188 66.8486 60.4873C66.1654 60.9558 65.2312 60.7817 64.7627 60.0986C64.7545 60.0903 64.6561 59.9785 64.3662 59.8076C64.0761 59.6367 63.6813 59.4578 63.2041 59.2949C62.2445 58.9676 61.0792 58.75 60 58.75C58.9208 58.75 57.7554 58.9676 56.7959 59.2949C56.3186 59.4578 55.9239 59.6367 55.6338 59.8076C55.3438 59.9785 55.2454 60.0904 55.2373 60.0986C54.7688 60.7817 53.8345 60.9558 53.1514 60.4873C52.4682 60.0188 52.2942 59.0845 52.7627 58.4014C53.113 57.8905 53.6305 57.5065 54.1103 57.2236C54.6155 56.9259 55.2055 56.6672 55.8271 56.4551C57.066 56.0324 58.5585 55.75 60 55.75Z"
			fill="#1D6283"
		/>
		<path
			fill-rule="evenodd"
			clip-rule="evenodd"
			d="M101.999 52.25C103.104 52.25 103.999 53.1454 103.999 54.25C103.999 55.3546 103.104 56.25 101.999 56.25C98.9568 56.2502 96.5323 57.3343 95.0999 58.9512C93.7135 60.5164 93.0661 62.7878 93.9183 65.6855C95.1286 69.8007 94.292 73.5541 92.0853 76.5273C90.4519 78.728 88.1173 80.4419 85.43 81.6191C86.4122 83.1992 87.0003 85.0075 87.0003 86.9395C87.0003 90.8479 84.936 93.6451 82.2826 95.3105C80.2307 96.5984 77.7857 97.2459 75.5091 97.3066C75.1687 98.2288 74.6913 98.9689 73.9398 99.624C73.4569 100.045 72.8987 100.396 72.3871 100.715C71.845 101.053 71.2492 101.418 70.5169 101.927C69.2405 102.814 68.4946 103.813 68.0706 104.564C67.858 104.942 67.7263 105.256 67.6517 105.462C67.6145 105.564 67.5919 105.639 67.5804 105.679C67.5751 105.697 67.5723 105.708 67.5716 105.711C67.5716 105.711 67.5721 105.708 67.5726 105.706C67.5731 105.704 67.5739 105.701 67.5746 105.698L67.5755 105.693L67.5765 105.69V105.688C67.4324 106.33 66.9821 106.86 66.3724 107.105C65.7621 107.351 65.0694 107.281 64.5208 106.918L64.5169 106.915C64.512 106.912 64.503 106.906 64.4915 106.898C64.4681 106.883 64.4312 106.859 64.3831 106.828C64.2869 106.767 64.1445 106.677 63.9671 106.568C63.6102 106.35 63.1191 106.062 62.5794 105.776C62.0342 105.488 61.4704 105.218 60.9622 105.025C60.549 104.869 60.27 104.802 60.1146 104.778L60.0003 104.768L59.8851 104.778C59.7297 104.802 59.4512 104.869 59.0384 105.025C58.5303 105.218 57.9664 105.488 57.4212 105.776C56.8817 106.062 56.3905 106.35 56.0335 106.568C55.8563 106.677 55.7138 106.767 55.6175 106.828C55.5696 106.859 55.5326 106.883 55.5091 106.898C55.4978 106.906 55.4888 106.912 55.4837 106.915L55.4798 106.917C54.9313 107.28 54.2385 107.351 53.6283 107.105C53.0948 106.891 52.6826 106.458 52.4915 105.924L52.429 105.711C52.4284 105.708 52.4256 105.697 52.4203 105.679C52.4088 105.639 52.3861 105.564 52.349 105.462C52.2744 105.257 52.1427 104.942 51.93 104.564C51.5061 103.813 50.76 102.814 49.4837 101.927C48.7515 101.418 48.1557 101.053 47.6136 100.715C47.102 100.396 46.5438 100.045 46.0609 99.624C45.3093 98.969 44.832 98.2288 44.4915 97.3066C42.2151 97.246 39.77 96.5983 37.7181 95.3105C35.0646 93.6451 33.0003 90.848 33.0003 86.9395C33.0004 85.0075 33.5876 83.1991 34.5697 81.6191C31.8825 80.4419 29.5478 78.728 27.9144 76.5273C25.7076 73.5541 24.8711 69.8007 26.0814 65.6855C26.9337 62.7876 26.2863 60.5164 24.8997 58.9512C23.4674 57.3342 21.0431 56.2501 18.0003 56.25C16.8958 56.25 16.0003 55.3546 16.0003 54.25C16.0003 53.1454 16.8958 52.25 18.0003 52.25C21.9572 52.2501 25.5617 53.666 27.8939 56.2988C30.2721 58.9836 31.1248 62.7124 29.9183 66.8145C29.0699 69.6992 29.6513 72.1562 31.1263 74.1436C32.4897 75.9804 34.6884 77.4939 37.429 78.4434C37.8538 78.1069 38.2996 77.7962 38.7611 77.5137C41.2521 75.9889 44.3514 75.1897 47.5345 75.5811C47.6203 73.724 48.4065 71.9779 49.8578 70.5693C52.0792 68.4135 55.6316 67.2499 60.0003 67.25L60.8099 67.2637C64.808 67.3994 68.0604 68.5482 70.1429 70.5693C71.5941 71.9778 72.3804 73.724 72.4662 75.5811C75.6493 75.1898 78.7485 75.9888 81.2396 77.5137C81.7009 77.7961 82.1451 78.108 82.5697 78.4443C85.3109 77.4949 87.5098 75.9806 88.8734 74.1436C90.3484 72.1562 90.9298 69.6992 90.0814 66.8145C88.875 62.7126 89.7277 58.9835 92.1058 56.2988C94.438 53.6661 98.0426 52.2502 101.999 52.25ZM60.0003 71.25C56.2445 71.25 53.8591 72.2593 52.6429 73.4395C51.5283 74.5213 51.211 75.9019 51.8558 77.5029C52.1534 78.2423 51.9832 79.0881 51.4232 79.6553C50.8629 80.2224 50.0188 80.4029 49.2757 80.1143C46.3296 78.9694 43.2309 79.4677 40.849 80.9258C38.4347 82.4039 37.0004 84.6983 37.0003 86.9395C37.0003 89.2377 38.1444 90.8555 39.8451 91.9229C41.6131 93.0322 43.9038 93.4738 45.7757 93.2627C46.1598 93.2194 46.5491 93.2881 46.8949 93.4609C49.2161 94.6214 51.5423 94.2426 53.1058 93.4609C53.6332 93.1971 54.3343 92.5175 54.8001 91.5547C55.2555 90.6135 55.3625 89.6623 55.1029 88.8828C54.6919 87.65 54.1747 86.7447 53.5492 86.1592C52.9751 85.6219 52.2033 85.2501 51.0003 85.25C49.5771 85.25 48.4806 85.5714 47.8099 85.999C47.1904 86.3942 47.0003 86.8119 47.0003 87.25C47.0003 87.4568 47.0566 87.5686 47.1078 87.6377C47.1674 87.718 47.2754 87.8105 47.4525 87.877C47.8258 88.0168 48.357 87.9826 48.8001 87.6504C49.6837 86.9879 50.9372 87.1665 51.5999 88.0498C52.2624 88.9332 52.0836 90.1868 51.2005 90.8496C49.6441 92.017 47.6747 92.2328 46.0482 91.623C44.3656 90.9921 43.0003 89.4337 43.0003 87.25C43.0003 85.1882 44.123 83.6058 45.6595 82.626C47.145 81.6788 49.0492 81.25 51.0003 81.25C53.1718 81.2501 54.9341 81.9773 56.2826 83.2393C57.5793 84.453 58.3747 86.0481 58.8978 87.6172C59.572 89.6399 59.1787 91.689 58.4007 93.2969C57.6332 94.8831 56.3673 96.3027 54.8949 97.0391C53.8137 97.5796 52.4884 98.0009 51.0277 98.1436C51.2592 98.2957 51.5063 98.4614 51.7669 98.6426C53.5036 99.85 54.6032 101.235 55.2855 102.383C55.3715 102.336 55.4592 102.288 55.5482 102.241C56.1746 101.909 56.9004 101.557 57.6224 101.284C58.302 101.027 59.1626 100.768 60.0003 100.768L60.3148 100.779C61.0502 100.832 61.7835 101.059 62.3783 101.284C63.1003 101.557 63.826 101.909 64.4525 102.241C64.5415 102.288 64.6291 102.336 64.7152 102.383C65.3975 101.235 66.4969 99.85 68.2337 98.6426C68.4944 98.4613 68.7414 98.2957 68.973 98.1436C67.5122 98.001 66.187 97.5796 65.1058 97.0391C63.6333 96.3028 62.3675 94.8832 61.5999 93.2969C60.8219 91.6889 60.4286 89.64 61.1029 87.6172C61.626 86.048 62.4213 84.453 63.7181 83.2393C65.0667 81.9773 66.8287 81.25 69.0003 81.25C70.9515 81.25 72.8557 81.6788 74.3412 82.626C75.8776 83.6058 77.0003 85.1883 77.0003 87.25C77.0003 89.4336 75.635 90.992 73.9525 91.623C72.326 92.2329 70.3566 92.0169 68.8001 90.8496C67.9167 90.1868 67.738 88.9334 68.4007 88.0498C69.0636 87.1665 70.317 86.9877 71.2005 87.6504C71.6438 87.9826 72.1749 88.0169 72.5482 87.877C72.7253 87.8104 72.8333 87.7181 72.8929 87.6377C72.9441 87.5686 73.0003 87.4567 73.0003 87.25C73.0003 86.8119 72.8101 86.3941 72.1908 85.999C71.5201 85.5714 70.4237 85.25 69.0003 85.25C67.7973 85.25 67.0257 85.6219 66.4515 86.1592C65.8259 86.7447 65.3088 87.6499 64.8978 88.8828C64.6381 89.6623 64.7451 90.6134 65.2005 91.5547C65.6665 92.5176 66.3675 93.1972 66.8949 93.4609C68.4584 94.2426 70.7846 94.6216 73.1058 93.4609C73.4516 93.2881 73.8408 93.2193 74.2249 93.2627C76.0969 93.4738 78.3876 93.0323 80.1556 91.9229C81.8561 90.8555 83.0003 89.2376 83.0003 86.9395C83.0002 84.6983 81.5659 82.4039 79.1517 80.9258C76.7698 79.4676 73.6711 78.9695 70.7249 80.1143C69.9818 80.403 69.1378 80.2224 68.5775 79.6553C68.0173 79.0881 67.8471 78.2424 68.1449 77.5029C68.7897 75.902 68.4722 74.5213 67.3578 73.4395C66.1417 72.2592 63.7563 71.25 60.0003 71.25Z"
			fill="#1D6283"
		/>
		<path
			fill-rule="evenodd"
			clip-rule="evenodd"
			d="M42.0003 49.25C45.3138 49.2502 48.0003 51.9364 48.0003 55.25C48.0003 58.5636 45.3138 61.2498 42.0003 61.25C38.6866 61.25 36.0003 58.5637 36.0003 55.25C36.0003 51.9363 38.6866 49.25 42.0003 49.25ZM42.0003 52.25C40.3435 52.25 39.0003 53.5931 39.0003 55.25C39.0003 56.9069 40.3435 58.25 42.0003 58.25C43.657 58.2498 45.0003 56.9067 45.0003 55.25C45.0003 53.5933 43.657 52.2502 42.0003 52.25Z"
			fill="#1D6283"
		/>
		<path
			fill-rule="evenodd"
			clip-rule="evenodd"
			d="M78.0003 49.25C81.3139 49.2501 84.0003 51.9364 84.0003 55.25C84.0003 58.5636 81.3139 61.2499 78.0003 61.25C74.6866 61.25 72.0003 58.5637 72.0003 55.25C72.0003 51.9363 74.6866 49.25 78.0003 49.25ZM78.0003 52.25C76.3435 52.25 75.0003 53.5931 75.0003 55.25C75.0003 56.9069 76.3435 58.25 78.0003 58.25C79.6571 58.2499 81.0003 56.9068 81.0003 55.25C81.0003 53.5932 79.6571 52.2501 78.0003 52.25Z"
			fill="#1D6283"
		/>
		<path
			d="M32.5557 12.4355C33.8339 11.914 35.2927 12.5274 35.8144 13.8057L45.8144 38.3057C46.336 39.5839 45.7226 41.0427 44.4443 41.5644C43.1661 42.086 41.7073 41.4726 41.1855 40.1943L31.1855 15.6943C30.664 14.4161 31.2774 12.9573 32.5557 12.4355Z"
			fill="#1D6283"
		/>
		<path
			d="M87.4443 12.4355C86.1661 11.914 84.7073 12.5274 84.1856 13.8057L74.1856 38.3057C73.664 39.5839 74.2774 41.0427 75.5557 41.5644C76.8339 42.086 78.2927 41.4726 78.8145 40.1943L88.8145 15.6943C89.336 14.4161 88.7226 12.9573 87.4443 12.4355Z"
			fill="#1D6283"
		/>
		<path
			d="M24.7822 22.5967C25.4192 21.3717 26.9284 20.8952 28.1533 21.5322L40.6533 28.0322C41.8783 28.6692 42.3548 30.1784 41.7178 31.4033C41.0808 32.6283 39.5716 33.1048 38.3467 32.4678L25.8467 25.9678C24.6217 25.3308 24.1452 23.8217 24.7822 22.5967Z"
			fill="#1D6283"
		/>
		<path
			d="M95.2178 22.5967C94.5808 21.3717 93.0716 20.8952 91.8467 21.5322L79.3467 28.0322C78.1217 28.6692 77.6452 30.1784 78.2822 31.4033C78.9192 32.6283 80.4283 33.1048 81.6533 32.4678L94.1533 25.9678C95.3783 25.3308 95.8548 23.8217 95.2178 22.5967Z"
			fill="#1D6283"
		/>
	</svg>