<svg width="120" height="120" viewBox="0 0 120 120" fill="none" xmlns="http://www.w3.org/2000/svg">
<path d="M120 60C120 93.1371 93.1371 120 60 120C26.8629 120 0 93.1371 0 60C0 26.8629 26.8629 0 60 0C93.1371 0 120 26.8629 120 60Z" fill="white"/>
<path d="M32.9737 18.2583C33.6647 17.945 34.4552 17.9169 35.1868 18.1731C35.917 18.4296 36.5287 18.9499 36.8718 19.6253C37.0525 19.982 37.2346 20.3395 37.4153 20.6961C40.6685 27.1164 43.9208 33.537 47.174 39.9572C47.3548 40.3139 47.5349 40.6713 47.7156 41.028C48.1921 41.9672 48.2651 43.0425 47.8942 44.0274C47.5245 45.0116 46.7413 45.8242 45.7414 46.2775C44.7413 46.7308 43.6121 46.7845 42.6257 46.415C41.638 46.0459 40.8746 45.2838 40.4786 44.3082C40.3282 43.9382 40.1767 43.5687 40.0263 43.1987C37.316 36.5322 34.6047 29.8644 31.8944 23.1979C31.744 22.8282 31.5943 22.4582 31.444 22.0884C31.159 21.3862 31.1691 20.5832 31.4557 19.8654C31.7432 19.1474 32.2829 18.5715 32.9737 18.2583Z" fill="#1D6283"/>
<path d="M22.5337 25.7539C23.1157 24.8258 24.342 24.5444 25.2728 25.1246L41.1756 35.0388C42.106 35.6194 42.3882 36.8426 41.8065 37.771C41.2244 38.6991 39.9981 38.9806 39.0674 38.4004L23.1646 28.4861C22.2341 27.9056 21.9519 26.6823 22.5337 25.7539Z" fill="#1D6283"/>
<path d="M85.0384 18.2583C84.3475 17.945 83.557 17.9169 82.8254 18.1731C82.0951 18.4296 81.4834 18.9499 81.1404 19.6253C80.9596 19.982 80.7776 20.3395 80.5968 20.6961C77.3437 27.1164 74.0913 33.537 70.8381 39.9572C70.6574 40.3139 70.4772 40.6713 70.2965 41.028C69.8201 41.9672 69.7471 43.0425 70.1179 44.0274C70.4876 45.0116 71.2709 45.8242 72.2708 46.2775C73.2708 46.7308 74.4 46.7845 75.3865 46.415C76.3741 46.0459 77.1376 45.2838 77.5335 44.3082C77.6839 43.9382 77.8354 43.5687 77.9858 43.1987C80.6962 36.5322 83.4074 29.8644 86.1178 23.1979C86.2681 22.8282 86.4178 22.4582 86.5681 22.0884C86.8531 21.3862 86.8431 20.5832 86.5565 19.8654C86.2689 19.1474 85.7293 18.5715 85.0384 18.2583Z" fill="#1D6283"/>
<path d="M95.4785 25.7539C94.8965 24.8258 93.6701 24.5444 92.7394 25.1246L76.8366 35.0388C75.9062 35.6194 75.624 36.8426 76.2057 37.771C76.7877 38.6991 78.014 38.9806 78.9448 38.4004L94.8476 28.4861C95.778 27.9056 96.0602 26.6823 95.4785 25.7539Z" fill="#1D6283"/>
<path d="M56.0237 72.4107C56.0237 70.2208 57.8039 68.4454 59.9994 68.4451C62.1951 68.4451 63.9751 70.2205 63.9751 72.4107C63.9751 74.1993 63.6917 75.9341 63.1617 77.5808C62.4905 79.6661 60.2516 80.814 58.161 80.1446C56.0704 79.4751 54.9196 77.2418 55.5908 75.1565C55.8752 74.2729 56.0237 73.3553 56.0237 72.4107Z" fill="#1D6283"/>
<path d="M58.6644 36.7448C56.9898 36.8084 55.2982 37.0217 53.6249 37.409C45.1757 39.1044 38.804 46.1701 35.9885 53.5738C26.6734 54.1264 16.6993 61.9559 17.0069 72.4107C17.1037 85.0133 29.7192 92.0457 40.1215 91.9971C48.6199 92.1192 58.1322 88.377 62.4168 79.4824C62.6995 78.8671 62.9499 78.2317 63.1603 77.5809C63.4284 76.7521 63.6331 75.8971 63.7699 75.0307C63.9068 74.1644 63.9757 73.2862 63.9756 72.4107C63.9756 71.359 63.5565 70.3506 62.8109 69.6069C62.0653 68.8632 61.0544 68.4451 59.9999 68.4451C58.9455 68.4451 57.9346 68.8632 57.189 69.6069C56.4434 70.3506 56.0243 71.359 56.0243 72.4107C56.0243 72.8762 55.9879 73.339 55.9155 73.7972C55.8432 74.255 55.7361 74.7089 55.5933 75.1565C55.4811 75.5083 55.3462 75.8573 55.1915 76.2002C52.9668 81.1972 46.4823 84.5039 40.1215 84.5498C32.2357 84.901 23.5408 79.6765 23.479 72.4107C23.0807 64.9987 30.1849 59.2259 38.1336 59.5223C39.3239 59.5223 40.6073 58.5884 40.9717 57.4581C43.0989 50.6079 48.7445 45.9592 55.205 45.046C56.4263 44.8374 57.6829 44.7192 58.9672 44.6703C59.304 44.6575 59.6482 44.651 59.9999 44.651C61.0544 44.651 62.0653 44.2329 62.8109 43.4891C63.5565 42.7454 63.9756 41.7371 63.9756 40.6853C63.9756 39.6335 63.5565 38.6251 62.8109 37.8814C62.0653 37.1377 61.0544 36.7196 59.9999 36.7196C59.5488 36.7196 59.1036 36.7281 58.6644 36.7448Z" fill="#1D6283"/>
<path d="M61.3356 36.7448C63.0102 36.8084 64.7017 37.0217 66.3751 37.409C74.8242 39.1044 81.1959 46.1701 84.0114 53.5738C93.3266 54.1264 103.301 61.9559 102.993 72.4107C102.896 85.0133 90.2808 92.0457 79.8785 91.9971C71.3801 92.1192 61.8677 88.377 57.5831 79.4824C57.3004 78.8671 57.0501 78.2317 56.8396 77.5809C56.5715 76.7521 56.3668 75.8971 56.2301 75.0307C56.0932 74.1644 56.0242 73.2862 56.0243 72.4107C56.0243 71.359 56.4435 70.3506 57.189 69.6069C57.9346 68.8632 58.9456 68.4451 60 68.4451C61.0544 68.4451 62.0653 68.8632 62.8109 69.6069C63.5565 70.3506 63.9757 71.359 63.9757 72.4107C63.9757 72.8762 64.012 73.339 64.0844 73.7972C64.1567 74.255 64.2639 74.7089 64.4066 75.1565C64.5189 75.5083 64.6537 75.8573 64.8085 76.2002C67.0332 81.1972 73.5176 84.5039 79.8785 84.5498C87.7642 84.901 96.4591 79.6765 96.5209 72.4107C96.9192 64.9987 89.815 59.2259 81.8663 59.5223C80.676 59.5223 79.3927 58.5884 79.0282 57.4581C76.901 50.6079 71.2554 45.9592 64.7949 45.046C63.5736 44.8374 62.3171 44.7192 61.0327 44.6703C60.696 44.6575 60.3518 44.651 60 44.651C58.9456 44.651 57.9346 44.2329 57.189 43.4891C56.4435 42.7454 56.0243 41.7371 56.0243 40.6853C56.0243 39.6335 56.4435 38.6251 57.189 37.8814C57.9346 37.1377 58.9456 36.7196 60 36.7196C60.4512 36.7196 60.8964 36.7281 61.3356 36.7448Z" fill="#1D6283"/>
<path d="M50.0608 61.0985C55.0996 60.7377 60.3737 64.1397 62.6149 68.4896C63.1107 69.3916 63.5326 70.3139 63.8573 71.4484C64.1573 72.4575 64.0353 73.5284 63.4923 74.4304C62.9506 75.332 62.0319 75.9921 60.9648 76.2583C59.8977 76.5244 58.7757 76.3734 57.8724 75.8323C56.9676 75.2915 56.3542 74.4043 56.1427 73.3731C56.0874 73.0112 55.9235 72.4895 55.7156 72.0157C54.621 69.5752 52.7198 68.0038 50.0608 67.8603C46.3771 67.4771 43.3561 69.755 42.9092 72.4108C42.8646 72.5131 42.9499 73.0712 43.1266 73.5067C43.3022 73.9646 43.5604 74.4083 43.8584 74.7712C44.4688 75.5033 45.1637 75.9035 46.0851 75.9737C46.7168 76.0105 47.0345 75.9172 47.3139 75.7006C47.5984 75.5018 47.9008 74.8599 47.939 74.3936C47.9497 74.4337 47.9531 74.4059 47.9564 74.382C47.4939 74.3327 47.0552 74.1148 46.7257 73.772C46.3687 73.3998 46.1685 72.9147 46.1685 72.4108C46.1685 71.9068 46.3687 71.4217 46.7257 71.0495C47.0829 70.678 47.5678 70.4497 48.0729 70.4279C49.3543 70.2651 51.3607 71.368 51.8389 72.8193C52.0455 73.3196 52.1638 73.786 52.1826 74.3936C52.1891 76.0133 51.743 77.491 50.5732 78.8163C49.4007 80.1457 47.5453 80.7293 46.0851 80.7449C41.4138 80.8186 37.8134 77.2353 37.3339 72.4108C37.4584 65.3491 44.4043 60.9594 50.0608 61.0985Z" fill="#1D6283"/>
<path d="M69.9392 61.0985C64.9004 60.7377 59.6263 64.1397 57.3851 68.4896C56.8893 69.3916 56.4674 70.3139 56.1427 71.4484C55.8427 72.4575 55.9647 73.5284 56.5077 74.4304C57.0494 75.332 57.9681 75.9921 59.0352 76.2583C60.1023 76.5244 61.2243 76.3734 62.1276 75.8323C63.0324 75.2915 63.6458 74.4043 63.8573 73.3731C63.9126 73.0112 64.0765 72.4895 64.2844 72.0157C65.379 69.5752 67.2802 68.0038 69.9392 67.8603C73.6229 67.4771 76.6439 69.755 77.0908 72.4108C77.1354 72.5131 77.0501 73.0712 76.8734 73.5067C76.6978 73.9646 76.4396 74.4083 76.1416 74.7712C75.5312 75.5033 74.8363 75.9035 73.9149 75.9737C73.2832 76.0105 72.9655 75.9172 72.6861 75.7006C72.4016 75.5018 72.0992 74.8599 72.061 74.3936C72.0503 74.4337 72.0469 74.4059 72.0436 74.382C72.5061 74.3327 72.9448 74.1148 73.2743 73.772C73.6313 73.3998 73.8315 72.9147 73.8315 72.4108C73.8315 71.9068 73.6313 71.4217 73.2743 71.0495C72.9171 70.678 72.4322 70.4497 71.9271 70.4279C70.6457 70.2651 68.6393 71.368 68.1611 72.8193C67.9545 73.3196 67.8362 73.786 67.8174 74.3936C67.8109 76.0133 68.257 77.491 69.4268 78.8163C70.5993 80.1457 72.4547 80.7293 73.9149 80.7449C78.5862 80.8186 82.1866 77.2353 82.6661 72.4108C82.5416 65.3491 75.5957 60.9594 69.9392 61.0985Z" fill="#1D6283"/>
<path d="M56.0243 55.5566C56.0243 57.1992 54.6893 58.5309 53.0425 58.5309C51.3957 58.5309 50.0607 57.1992 50.0607 55.5566C50.0607 53.914 51.3957 52.5823 53.0425 52.5823C54.6893 52.5823 56.0243 53.914 56.0243 55.5566Z" fill="#1D6283"/>
<path d="M69.9392 55.5566C69.9392 57.1992 68.6042 58.5309 66.9574 58.5309C65.3106 58.5309 63.9756 57.1992 63.9756 55.5566C63.9756 53.914 65.3106 52.5823 66.9574 52.5823C68.6042 52.5823 69.9392 53.914 69.9392 55.5566Z" fill="#1D6283"/>
</svg>
